<?xml version="1.0" encoding="utf-8"?>
<!-- Generator: Adobe Illustrator 22.1.0, SVG Export Plug-In . SVG Version: 6.00 Build 0)  -->
<svg version="1.1" id="Ebene_1" xmlns="http://www.w3.org/2000/svg" xmlns:xlink="http://www.w3.org/1999/xlink" x="0px" y="0px"
	 viewBox="0 0 117 119.7" style="enable-background:new 0 0 117 119.7;" xml:space="preserve">
<style type="text/css">
	.st0{fill:#CECECE;}
	.st1{fill:#FFFFFF;}
</style>
<g>
	<g>
		<path class="st0" d="M58.3,7.9V60H6.2c0,28.8,23.3,52.1,52.1,52.1c28.8,0,52.1-23.3,52.1-52.1S87,7.9,58.3,7.9z"/>
	</g>
</g>
<g>
	<path class="st1" d="M22.2,33.9c0.2,11,7.2,15.6,15.4,15.6c5.8,0,9.4-1,12.4-2.3l1.4,5.8c-2.9,1.3-7.8,2.8-14.9,2.8
		c-13.8,0-22.1-9.1-22.1-22.6c0-13.5,8-24.2,21.1-24.2C50.1,9,54,21.9,54,30.1c0,1.7-0.2,3-0.3,3.8H22.2z M46.1,28.1
		c0.1-5.2-2.1-13.3-11.3-13.3c-8.3,0-11.9,7.6-12.5,13.3H46.1z"/>
</g>
<g>
</g>
<g>
</g>
<g>
</g>
<g>
</g>
<g>
</g>
<g>
</g>
</svg>
