<?xml version="1.0" encoding="utf-8"?>
<!-- Generator: Adobe Illustrator 22.1.0, SVG Export Plug-In . SVG Version: 6.00 Build 0)  -->
<svg version="1.1" id="Ebene_1" xmlns="http://www.w3.org/2000/svg" xmlns:xlink="http://www.w3.org/1999/xlink" x="0px" y="0px"
	 viewBox="0 0 104.2 104.3" style="enable-background:new 0 0 104.2 104.3;" xml:space="preserve">
<style type="text/css">
	.st0{fill:#CECECE;}
	.st1{fill:#18499A;}
</style>
<g>
	<g>
		<path class="st0" d="M52.1,0.1v52.1H0c0,28.8,23.3,52.1,52.1,52.1c28.8,0,52.1-23.3,52.1-52.1S80.9,0.1,52.1,0.1z"/>
	</g>
</g>
<g>
	<path class="st1" d="M16,26.1c0.2,11,7.2,15.6,15.4,15.6c5.8,0,9.4-1,12.4-2.3l1.4,5.8c-2.9,1.3-7.8,2.8-14.9,2.8
		C16.5,48,8.2,38.9,8.2,25.4c0-13.5,8-24.2,21.1-24.2c14.7,0,18.6,12.9,18.6,21.2c0,1.7-0.2,3-0.3,3.8H16z M39.9,20.2
		C40,15.1,37.8,7,28.6,7c-8.3,0-11.9,7.6-12.5,13.3H39.9z"/>
</g>
<g>
</g>
<g>
</g>
<g>
</g>
<g>
</g>
<g>
</g>
<g>
</g>
</svg>
