<?xml version="1.0" encoding="utf-8"?>
<!-- Generator: Adobe Illustrator 22.1.0, SVG Export Plug-In . SVG Version: 6.00 Build 0)  -->
<svg version="1.1" id="Ebene_1" xmlns="http://www.w3.org/2000/svg" xmlns:xlink="http://www.w3.org/1999/xlink" x="0px" y="0px"
	 viewBox="0 0 257.5 153.7" style="enable-background:new 0 0 257.5 153.7;" xml:space="preserve">
<style type="text/css">
	.st0{fill:#FFFFFF;}
	.st1{fill:none;}
	.st2{fill:#BDBDBD;}
</style>
<g>
	<g>
		<path class="st0" d="M7.2,56.3c3.3,2,8.1,3.7,13.1,3.7c7.5,0,11.8-3.9,11.8-9.7c0-5.3-3-8.3-10.7-11.3c-9.2-3.3-15-8.1-15-16
			c0-8.8,7.3-15.4,18.3-15.4c5.8,0,10,1.3,12.5,2.8l-2,6c-1.8-1-5.6-2.7-10.8-2.7c-7.7,0-10.7,4.6-10.7,8.5c0,5.3,3.4,7.9,11.3,10.9
			c9.6,3.7,14.4,8.3,14.4,16.6c0,8.7-6.5,16.3-19.8,16.3c-5.5,0-11.4-1.6-14.4-3.6L7.2,56.3z"/>
		<path class="st0" d="M78.8,63.7c-1.9,1-6.2,2.4-11.7,2.4c-12.3,0-20.2-8.3-20.2-20.7c0-12.5,8.6-21.6,21.8-21.6
			c4.4,0,8.2,1.1,10.2,2.1l-1.7,5.7c-1.8-1-4.5-1.9-8.6-1.9c-9.3,0-14.4,6.9-14.4,15.4c0,9.4,6,15.2,14.1,15.2c4.2,0,7-1.1,9.1-2
			L78.8,63.7z"/>
		<path class="st0" d="M87.5,5.6h7.4V31H95c1.2-2.1,3-3.9,5.3-5.2c2.2-1.3,4.8-2.1,7.6-2.1c5.5,0,14.2,3.4,14.2,17.4v24.2h-7.4V41.9
			c0-6.6-2.4-12.1-9.4-12.1c-4.8,0-8.6,3.4-9.9,7.4c-0.4,1-0.5,2.1-0.5,3.5v24.5h-7.4V5.6z"/>
		<path class="st0" d="M168.1,54.1c0,4.2,0.1,7.9,0.3,11.1h-6.6l-0.4-6.6h-0.2c-1.9,3.3-6.2,7.6-13.4,7.6c-6.4,0-14-3.5-14-17.8
			V24.6h7.4v22.5c0,7.7,2.4,12.9,9.1,12.9c5,0,8.4-3.4,9.7-6.7c0.4-1.1,0.7-2.4,0.7-3.8V24.6h7.4V54.1z"/>
		<path class="st0" d="M180.4,5.6h7.4v59.6h-7.4V5.6z"/>
		<path class="st0" d="M204.3,46.2c0.2,10,6.6,14.1,13.9,14.1c5.3,0,8.5-0.9,11.3-2.1l1.3,5.3c-2.6,1.2-7.1,2.5-13.5,2.5
			c-12.5,0-20-8.2-20-20.5c0-12.3,7.2-21.9,19.1-21.9c13.3,0,16.8,11.7,16.8,19.2c0,1.5-0.2,2.7-0.3,3.4H204.3z M226,41
			c0.1-4.7-1.9-12-10.2-12c-7.5,0-10.8,6.9-11.3,12H226z"/>
	</g>
</g>
<g>
	<g>
		<path class="st0" d="M33.2,121.7H12.7v19h22.8v5.7H5.9V93.8h28.4v5.7H12.7v16.6h20.4V121.7z"/>
		<path class="st0" d="M51.7,98c0.1,2.3-1.6,4.2-4.4,4.2c-2.4,0-4.1-1.9-4.1-4.2c0-2.4,1.8-4.3,4.3-4.3C50.1,93.7,51.7,95.6,51.7,98
			z M44.1,146.4v-37.8h6.9v37.8H44.1z"/>
		<path class="st0" d="M62.3,118.9c0-3.9-0.1-7.1-0.3-10.2h6.1l0.4,6.2h0.2c1.9-3.6,6.2-7.1,12.5-7.1c5.2,0,13.3,3.1,13.3,16.1v22.5
			h-6.9v-21.8c0-6.1-2.3-11.2-8.7-11.2c-4.5,0-8,3.2-9.2,7c-0.3,0.9-0.5,2-0.5,3.2v22.7h-6.9V118.9z"/>
		<path class="st0" d="M106.3,146.4v-32.5H101v-5.2h5.3v-1.8c0-5.3,1.2-10.1,4.4-13.2c2.6-2.5,6-3.5,9.2-3.5c2.4,0,4.5,0.5,5.8,1.1
			l-0.9,5.3c-1-0.5-2.4-0.9-4.4-0.9c-5.9,0-7.3,5.1-7.3,10.9v2h9.1v5.2h-9.1v32.5H106.3z"/>
		<path class="st0" d="M149.3,146.4l-0.5-4.8h-0.2c-2.1,3-6.2,5.6-11.5,5.6c-7.6,0-11.5-5.4-11.5-10.8c0-9.1,8.1-14.1,22.7-14v-0.8
			c0-3.1-0.9-8.7-8.6-8.7c-3.5,0-7.2,1.1-9.8,2.8l-1.6-4.5c3.1-2,7.6-3.4,12.4-3.4c11.5,0,14.4,7.9,14.4,15.4v14.1
			c0,3.3,0.2,6.5,0.6,9H149.3z M148.3,127.1c-7.5-0.2-16,1.2-16,8.5c0,4.4,3,6.6,6.5,6.6c4.9,0,8-3.1,9.1-6.3
			c0.2-0.7,0.4-1.5,0.4-2.2V127.1z"/>
		<path class="st0" d="M192.9,145c-1.8,0.9-5.8,2.2-10.8,2.2c-11.4,0-18.8-7.7-18.8-19.3c0-11.6,8-20,20.3-20c4.1,0,7.6,1,9.5,1.9
			l-1.6,5.3c-1.6-0.9-4.2-1.8-8-1.8c-8.7,0-13.3,6.4-13.3,14.3c0,8.7,5.6,14.1,13.1,14.1c3.9,0,6.5-1,8.4-1.9L192.9,145z"/>
		<path class="st0" d="M200.9,91h6.9v23.6h0.2c1.1-2,2.8-3.7,4.9-4.8c2-1.2,4.4-2,7-2c5.1,0,13.2,3.1,13.2,16.1v22.5h-6.9v-21.7
			c0-6.1-2.3-11.2-8.7-11.2c-4.4,0-8,3.1-9.2,6.9c-0.4,0.9-0.5,1.9-0.5,3.3v22.8h-6.9V91z"/>
	</g>
</g>
<g>
	<rect x="-280.2" y="-111.6" class="st1" width="277.6" height="90.8"/>
</g>
<rect x="241" y="53.7" class="st2" width="11.7" height="11.7"/>
<rect x="241" y="134.8" class="st2" width="11.7" height="11.7"/>
<g>
</g>
<g>
</g>
<g>
</g>
<g>
</g>
<g>
</g>
<g>
</g>
</svg>
